<?xml version="1.0" standalone="no"?>
<!DOCTYPE svg PUBLIC "-//W3C//DTD SVG 20010904//EN"
 "http://www.w3.org/TR/2001/REC-SVG-20010904/DTD/svg10.dtd">
<svg version="1.0" xmlns="http://www.w3.org/2000/svg"
 width="270.000000pt" height="270.000000pt" viewBox="0 0 270.000000 270.000000"
 preserveAspectRatio="xMidYMid meet">
<metadata>
Created by potrace 1.13, written by Peter Selinger 2001-2015
</metadata>
<g transform="translate(0.000000,270.000000) scale(0.100000,-0.100000)"
fill="#000000" stroke="none">
<path d="M1900 2034 c-74 -41 -143 -74 -152 -74 -26 0 -28 -13 -8 -58 14 -31
25 -42 41 -42 20 0 199 91 242 122 14 11 18 25 15 70 l-3 56 -135 -74z"/>
<path d="M1110 2031 c-147 -48 -290 -158 -345 -266 -54 -107 -29 -235 62 -315
58 -50 118 -71 228 -77 74 -4 107 0 186 20 166 43 428 166 682 320 l117 71 0
68 c0 37 -3 68 -7 68 -5 -1 -71 -36 -148 -79 -77 -43 -143 -77 -146 -75 -3 2
-32 64 -65 138 l-59 136 -90 0 -90 0 -124 -231 c-68 -126 -120 -233 -117 -236
9 -9 104 15 152 38 39 18 46 28 100 149 33 71 62 129 65 130 4 0 25 -45 47
-100 30 -75 37 -102 28 -109 -22 -18 -220 -107 -286 -129 -175 -57 -379 -69
-437 -26 -18 14 -29 32 -31 52 -6 64 79 177 186 249 65 43 201 93 255 93 20 0
37 4 37 9 0 23 -32 97 -47 109 -23 17 -88 14 -153 -7z"/>
<path d="M1728 1565 c-75 -39 -74 -34 -25 -135 l22 -45 93 -3 c50 -1 92 -1 92
1 0 12 -103 217 -108 217 -4 -1 -37 -16 -74 -35z"/>
<path d="M750 1250 l0 -50 600 0 600 0 0 50 0 50 -600 0 -600 0 0 -50z"/>
<path d="M770 921 c0 -90 0 -91 25 -91 23 0 25 4 25 40 l0 40 45 0 45 0 0 -40
c0 -35 3 -40 23 -40 21 0 22 2 19 91 -3 78 -6 90 -20 87 -11 -2 -18 -15 -20
-36 -3 -31 -5 -32 -47 -32 -42 0 -44 1 -47 33 -2 24 -8 33 -25 35 -22 3 -23 1
-23 -87z"/>
<path d="M1000 920 c0 -72 3 -90 15 -90 11 0 15 16 17 68 l3 67 45 -67 c37
-56 50 -68 73 -68 l27 0 0 90 c0 83 -2 90 -20 90 -16 0 -19 -8 -22 -62 l-3
-63 -43 63 c-33 48 -48 62 -67 62 -25 0 -25 -1 -25 -90z"/>
<path d="M1265 996 c-31 -13 -55 -51 -55 -86 0 -29 46 -77 81 -84 50 -10 106
10 124 44 19 36 19 54 0 89 -23 46 -91 63 -150 37z"/>
<path d="M1670 1003 c-38 -14 -60 -47 -60 -88 0 -67 64 -105 142 -85 60 17 86
77 57 132 -19 34 -95 57 -139 41z"/>
<path d="M1900 992 c-57 -28 -66 -97 -19 -141 24 -23 63 -30 121 -22 l43 6 3
48 3 48 -42 -3 c-47 -3 -68 -28 -24 -28 22 0 26 -4 23 -22 -2 -17 -11 -24 -34
-26 -64 -6 -100 62 -58 109 16 18 27 20 72 16 39 -4 52 -2 52 7 0 8 -17 16
-37 20 -56 9 -65 8 -103 -12z"/>
<path d="M2413 1000 c-12 -5 -27 -19 -34 -31 -10 -20 -8 -26 15 -46 15 -13 40
-23 55 -23 16 0 34 -6 40 -14 18 -22 -21 -39 -70 -31 -37 6 -53 -5 -28 -20 21
-13 98 -8 123 9 47 30 23 86 -35 86 -17 0 -39 5 -50 11 -17 9 -18 13 -8 26 10
11 24 14 61 9 53 -7 66 8 22 24 -30 12 -61 12 -91 0z"/>
<path d="M511 741 c-10 -6 -12 -19 -7 -44 5 -25 2 -38 -9 -47 -18 -15 -20 -54
-2 -68 7 -6 37 -10 67 -9 l55 1 1 38 c1 26 -3 38 -12 38 -8 0 -14 -5 -14 -12
0 -8 -6 -6 -17 5 -16 15 -16 18 0 35 20 22 22 43 5 60 -14 14 -47 15 -67 3z"/>
<path d="M742 734 c-23 -16 -30 -58 -11 -70 6 -4 32 -12 57 -18 25 -7 47 -17
50 -24 6 -19 -41 -31 -82 -22 -52 12 -48 -16 5 -30 34 -9 46 -8 77 7 30 15 37
24 37 47 0 32 -11 40 -70 53 -25 5 -40 14 -40 23 0 11 12 15 53 15 33 -1 52 3
52 11 0 26 -94 32 -128 8z"/>
<path d="M1120 660 c0 -83 1 -90 20 -90 18 0 20 7 20 76 l0 75 48 -3 c39 -2
47 -6 47 -22 0 -13 -11 -23 -32 -30 -41 -14 -52 -26 -25 -26 14 0 30 -13 44
-35 15 -23 31 -35 46 -35 l24 0 -22 35 c-21 33 -21 37 -6 54 9 10 16 27 16 39
0 35 -37 52 -112 52 l-68 0 0 -90z"/>
<path d="M2060 730 c-37 -37 -18 -67 54 -85 77 -19 49 -63 -29 -45 -46 10 -49
-13 -4 -29 43 -15 107 2 118 32 12 32 2 57 -28 63 -76 17 -86 21 -86 35 0 11
14 14 58 13 31 -1 57 0 57 2 0 1 -7 10 -16 18 -23 24 -99 21 -124 -4z"/>
</g>
</svg>
