<?xml version="1.0" standalone="no"?>
<!DOCTYPE svg PUBLIC "-//W3C//DTD SVG 20010904//EN"
 "http://www.w3.org/TR/2001/REC-SVG-20010904/DTD/svg10.dtd">
<svg version="1.0" xmlns="http://www.w3.org/2000/svg"
 width="296.000000pt" height="197.000000pt" viewBox="0 0 296.000000 197.000000"
 preserveAspectRatio="xMidYMid meet">
<metadata>
Created by potrace 1.13, written by Peter Selinger 2001-2015
</metadata>
<g transform="translate(0.000000,197.000000) scale(0.100000,-0.100000)"
fill="#000000" stroke="none">
<path d="M783 1940 c-146 -52 -266 -192 -336 -395 l-32 -90 -3 -373 -3 -372
58 26 c77 34 77 34 83 -6 4 -30 9 -35 45 -42 45 -10 80 -38 93 -78 13 -36 -3
-68 -44 -92 -42 -24 -84 -11 -84 26 0 32 32 51 60 36 29 -16 24 5 -6 25 -31
20 -65 14 -109 -19 -16 -13 -45 -31 -62 -40 -39 -20 -41 -31 -10 -57 14 -12
38 -18 70 -19 57 0 60 -12 9 -33 -42 -17 -102 -92 -102 -129 0 -14 14 -34 37
-54 31 -26 35 -34 29 -58 -4 -15 -20 -35 -36 -44 -21 -12 -30 -25 -30 -43 0
-23 3 -25 30 -21 39 6 70 -21 70 -60 0 -25 3 -28 35 -28 25 0 35 4 35 16 0 9
16 32 35 51 19 19 35 45 35 57 0 12 6 31 14 42 20 26 93 25 132 -3 27 -19 32
-20 63 -7 27 12 32 18 27 37 -3 12 -6 25 -6 29 0 3 -25 21 -55 38 -71 41 -105
89 -105 150 0 60 32 114 61 105 15 -5 29 1 47 18 42 39 66 47 136 47 58 0 69
-4 108 -33 74 -56 98 -139 58 -204 -37 -61 -131 -84 -182 -43 -80 63 -44 170
57 170 34 0 43 -5 58 -29 9 -16 17 -36 17 -44 0 -21 -19 -32 -33 -18 -18 18
-47 13 -47 -9 0 -27 45 -38 79 -19 47 26 36 110 -19 149 -34 24 -98 26 -126 4
-14 -11 -16 -17 -6 -21 9 -4 3 -14 -20 -33 -28 -24 -33 -34 -33 -73 0 -36 7
-53 31 -84 17 -21 40 -42 50 -48 11 -5 38 -27 59 -48 33 -32 39 -43 37 -75 -3
-39 -2 -39 41 20 21 28 25 43 21 67 -6 26 -3 31 13 31 10 0 24 -5 29 -10 7 -7
29 -2 70 16 79 36 207 44 288 19 60 -19 128 -71 151 -116 19 -35 20 -122 3
-117 -7 3 -22 29 -33 59 -19 48 -24 54 -49 54 -18 -1 -39 9 -56 27 -16 15 -39
28 -51 28 -22 0 -22 -1 6 -30 28 -29 29 -32 15 -57 -19 -34 -60 -45 -137 -38
-101 10 -143 60 -87 104 l27 21 -26 0 c-41 0 -79 -21 -72 -39 7 -18 8 -21 6
-38 -1 -16 -37 -17 -47 -2 -4 7 -17 0 -35 -17 -42 -40 -38 -54 16 -54 36 0 52
-6 71 -25 l25 -25 455 0 455 0 57 29 c152 77 271 254 317 471 12 59 15 188 15
766 l0 694 -852 -1 c-804 0 -856 -2 -905 -19z m97 -564 c32 -11 35 -15 34 -49
-2 -49 -9 -55 -37 -30 -36 33 -62 43 -113 43 -63 0 -107 -30 -142 -95 -36 -68
-38 -188 -5 -252 54 -100 167 -129 260 -66 19 13 37 22 39 20 2 -2 1 -19 -2
-37 -10 -45 -55 -63 -165 -64 -75 0 -92 3 -145 29 -74 37 -118 93 -134 171
-19 93 5 191 64 261 65 77 223 109 346 69z m251 -98 l-2 -108 115 0 116 0 0
110 0 110 63 0 62 0 0 -272 0 -271 -63 -2 -63 -2 2 131 1 131 -117 3 -116 3 2
-132 2 -131 -54 0 c-30 0 -58 0 -64 1 -8 1 -10 161 -5 539 0 2 28 2 61 0 l62
-3 -2 -107z m708 106 c42 -9 77 -44 92 -92 16 -55 -9 -126 -53 -151 -64 -35
-66 -26 21 -164 43 -70 79 -127 78 -127 -1 -1 -33 -2 -71 -2 l-70 -2 -63 115
c-36 63 -69 119 -75 124 -7 7 -9 -28 -7 -114 l4 -123 -60 0 -60 -1 -3 272 -2
271 119 0 c65 0 132 -3 150 -6z m287 -176 c-1 -215 10 -264 68 -292 73 -35
150 -13 182 51 16 32 19 66 22 231 l4 193 36 -3 37 -3 -3 -160 c-4 -247 -23
-307 -112 -353 -40 -21 -56 -23 -135 -20 -103 5 -140 20 -182 75 l-28 36 -5
210 c-3 115 -3 211 -1 213 2 2 30 4 62 4 l57 0 -2 -182z m-714 -565 c5 119 23
90 23 -37 0 -83 -3 -110 -14 -114 -8 -3 -42 26 -87 74 l-73 79 -1 -77 c0 -63
-3 -78 -15 -78 -12 0 -15 19 -15 114 0 82 4 116 13 119 6 3 47 -31 89 -76 l77
-82 3 78z m218 -25 c25 -62 47 -116 48 -120 2 -5 -10 -8 -27 -8 -25 0 -32 6
-42 35 -12 31 -17 35 -50 35 -34 0 -39 -3 -49 -35 -8 -23 -18 -35 -30 -35 -18
0 -17 4 7 58 14 31 31 73 38 92 29 78 35 90 47 90 7 0 33 -51 58 -112z m189
29 l70 -76 3 76 c2 50 7 78 16 81 9 3 12 -25 12 -117 0 -150 -7 -153 -99 -46
-35 41 -67 75 -72 75 -5 0 -9 -34 -9 -75 0 -63 -3 -75 -16 -75 -15 0 -16 9
-11 68 4 37 7 90 7 119 0 69 13 65 99 -30z m341 67 c15 -15 -6 -40 -22 -27
-53 41 -118 -2 -118 -80 0 -79 58 -120 122 -86 17 9 19 8 16 -8 -5 -26 -63
-38 -116 -24 -104 29 -109 187 -7 232 24 11 112 6 125 -7z m105 -31 c11 -23
23 -44 27 -48 4 -4 18 16 32 44 17 33 31 49 40 45 10 -4 5 -20 -20 -67 -26
-47 -34 -74 -34 -114 0 -53 0 -53 -31 -53 -31 0 -31 1 -25 38 4 31 -1 52 -29
111 -19 40 -35 76 -35 80 0 4 12 7 28 6 22 0 31 -8 47 -42z"/>
<path d="M1697 1333 c-4 -3 -7 -51 -7 -105 l0 -98 31 0 c20 0 40 10 60 29 25
26 29 37 29 85 0 67 -22 96 -73 96 -19 0 -37 -3 -40 -7z"/>
<path d="M921 118 c-32 -39 -76 -57 -167 -68 -44 -4 -85 -15 -102 -26 l-27
-19 102 -3 c76 -2 109 1 125 12 42 26 80 28 123 6 21 -11 41 -20 43 -20 3 0 2
18 -1 40 -3 28 -14 47 -32 62 -14 11 -24 27 -21 34 10 25 -19 13 -43 -18z"/>
</g>
</svg>
