<?xml version="1.0" standalone="no"?>
<!DOCTYPE svg PUBLIC "-//W3C//DTD SVG 20010904//EN"
 "http://www.w3.org/TR/2001/REC-SVG-20010904/DTD/svg10.dtd">
<svg version="1.0" xmlns="http://www.w3.org/2000/svg"
 width="650.000000pt" height="500.000000pt" viewBox="0 0 650.000000 500.000000"
 preserveAspectRatio="xMidYMid meet">
<metadata>
Created by potrace 1.13, written by Peter Selinger 2001-2015
</metadata>
<g transform="translate(0.000000,500.000000) scale(0.100000,-0.100000)"
fill="#000000" stroke="none">
<path d="M527 4980 c-7 -11 -25 -21 -38 -22 -32 -4 -40 -27 -16 -51 16 -16 25
-17 57 -9 30 7 41 6 53 -5 9 -9 23 -13 36 -8 23 7 29 25 9 25 -16 0 -20 53 -5
62 18 11 27 9 27 -6 0 -9 8 -12 25 -8 21 3 24 1 19 -12 -4 -10 -12 -15 -19
-12 -8 3 -19 -11 -28 -35 -18 -46 -41 -58 -67 -34 -18 17 -27 18 -102 14 -31
-2 -36 -5 -28 -19 6 -11 5 -21 -3 -30 -10 -10 -6 -11 20 -7 29 6 33 3 52 -33
20 -39 20 -40 1 -50 -26 -14 -45 -13 -59 4 -10 11 -8 17 6 25 17 10 17 10 -3
11 -23 0 -44 -18 -44 -37 0 -7 11 -13 25 -13 15 0 28 -7 32 -17 4 -10 11 -21
17 -25 6 -4 -4 -10 -22 -14 -30 -6 -32 -9 -27 -35 5 -24 3 -29 -12 -29 -11 0
-25 -6 -31 -12 -7 -7 -18 -13 -25 -13 -8 0 -12 -16 -11 -48 2 -43 0 -47 -21
-47 -13 0 -37 -11 -53 -25 -18 -15 -37 -23 -46 -19 -11 4 -16 0 -16 -14 0 -23
-30 -37 -59 -27 -24 7 -37 -11 -21 -30 14 -17 -1 -20 -17 -4 -16 16 -36 1 -30
-23 6 -20 -31 -68 -52 -68 -15 0 -14 -17 1 -22 9 -3 9 -6 0 -12 -6 -3 -20 2
-32 14 l-20 20 2 -1767 3 -1768 21 -40 c12 -22 34 -67 49 -100 15 -33 36 -69
45 -80 15 -17 17 -28 9 -75 -11 -66 -4 -111 21 -138 42 -45 64 -135 35 -146
-8 -3 -15 -16 -15 -28 0 -13 -7 -34 -16 -46 -8 -12 -10 -22 -5 -22 24 0 9 -21
-19 -26 -21 -5 -30 -12 -30 -25 0 -18 36 -19 1305 -19 1241 0 1305 1 1296 17
-21 38 -225 232 -255 243 -26 9 -115 85 -121 103 -4 9 -11 17 -16 17 -5 0 -9
6 -9 13 0 6 -18 25 -40 40 -22 16 -40 35 -40 43 0 8 -4 14 -10 14 -5 0 -10 -4
-10 -9 0 -18 -80 32 -133 84 -31 30 -58 55 -61 55 -3 0 -22 11 -43 26 -31 21
-38 22 -43 10 -4 -13 -11 -12 -50 5 -25 11 -49 27 -53 35 -10 18 -27 18 -27
-1 0 -18 -12 -19 -27 -4 -8 8 -13 8 -18 -1 -4 -6 2 -19 13 -28 19 -17 19 -17
-23 -17 -37 1 -55 10 -118 58 -75 58 -94 86 -77 117 5 10 6 21 2 25 -4 3 -2 6
3 5 23 -5 33 1 38 23 6 20 5 21 -8 4 -8 -12 -15 -14 -20 -8 -3 6 -2 11 3 11 6
0 13 7 16 16 3 8 2 12 -4 9 -5 -3 -20 14 -33 37 -13 24 -91 162 -172 308 -81
146 -167 299 -190 340 -38 66 -430 765 -693 1235 -52 94 -125 224 -163 290
-37 66 -71 128 -75 138 -6 18 16 18 587 12 327 -3 617 -9 644 -14 28 -5 45 -9
38 -10 -7 0 -18 -11 -24 -23 -12 -23 -12 -23 10 -4 23 21 27 16 10 -16 -7 -13
-7 -18 0 -14 12 8 35 -30 26 -44 -3 -5 6 -21 21 -35 26 -26 26 -27 8 -48 -11
-12 4 0 32 27 54 51 79 69 104 72 8 1 39 11 69 23 101 39 208 37 306 -3 20 -9
38 -15 41 -15 2 0 12 -8 21 -17 15 -15 20 -10 60 69 133 265 391 372 619 256
60 -30 152 -110 110 -95 -11 4 -53 12 -93 18 -272 42 -495 -167 -508 -477 -7
-163 10 -234 153 -641 28 -77 55 -172 61 -210 11 -74 1 -213 -20 -272 -6 -18
-9 -36 -5 -39 3 -3 9 8 12 25 4 18 10 29 15 27 4 -3 6 -13 3 -23 -5 -14 -4
-15 5 -2 5 8 7 18 2 23 -4 4 -4 36 1 70 5 34 7 98 4 142 -7 94 -10 109 -29
155 -8 19 -12 41 -10 48 3 6 0 12 -5 12 -6 0 -8 9 -5 20 3 11 0 20 -6 20 -6 0
-10 3 -9 8 1 4 -6 24 -15 46 -20 45 -22 70 -5 60 7 -4 8 -3 4 5 -4 6 -12 9
-17 6 -18 -12 -8 17 19 58 16 23 47 75 70 115 l41 73 -36 107 c-28 83 -37 128
-41 202 -5 104 5 141 52 203 59 77 209 121 333 98 128 -23 147 -48 182 -233
20 -110 41 -165 67 -175 19 -7 18 -23 -2 -38 -15 -10 -15 -21 -4 -96 16 -109
12 -140 -20 -156 -56 -28 -272 -8 -350 32 -17 9 -30 11 -30 6 0 -9 71 -41 93
-41 6 0 28 -5 48 -10 l36 -10 6 -80 c4 -49 16 -104 31 -141 26 -64 66 -129 79
-129 5 0 -6 20 -23 44 -17 24 -32 49 -34 57 -1 8 -7 24 -14 36 -7 12 -12 37
-12 57 0 19 -5 38 -10 41 -13 8 -11 115 2 115 4 0 8 -7 8 -16 0 -8 4 -13 9
-10 10 7 21 -29 16 -52 -13 -53 -15 -65 -9 -52 8 17 30 40 38 40 4 0 1 -9 -6
-20 -10 -15 -10 -22 0 -32 17 -17 15 -31 -4 -24 -14 5 -15 4 -4 -8 11 -14 14
-14 28 0 14 14 16 12 28 -23 8 -21 14 -39 14 -40 0 -2 5 -3 10 -3 6 0 10 8 10
18 0 14 2 15 10 2 5 -9 5 -19 0 -26 -6 -6 -7 -14 -3 -17 3 -4 -1 -7 -10 -7 -9
0 -22 9 -30 20 -12 18 -15 18 -20 5 -9 -21 -28 -19 -21 3 5 14 4 14 -4 2 -15
-21 -8 -27 45 -35 76 -11 161 -60 231 -132 l62 -64 1 -107 c1 -59 5 -197 9
-307 5 -169 7 -133 8 235 2 416 8 510 32 510 6 0 11 -89 11 -222 1 -123 5
-313 9 -423 6 -181 7 -160 9 210 2 226 3 422 3 437 0 24 22 57 33 47 2 -3 5
-193 6 -422 0 -229 5 -417 9 -417 5 0 16 13 26 28 17 29 54 59 54 44 0 -5 10
-20 23 -34 37 -43 71 -85 84 -104 6 -11 16 -18 22 -17 6 2 11 -6 11 -18 0 -11
13 -39 29 -62 15 -23 45 -69 66 -102 21 -33 43 -63 48 -66 4 -3 9 -13 11 -21
1 -8 16 -33 34 -55 18 -23 32 -48 32 -57 0 -8 9 -20 19 -26 28 -14 101 -168
106 -222 1 -16 11 -40 21 -54 48 -68 53 -79 43 -89 -7 -7 -19 -1 -37 20 -15
17 -46 46 -69 64 -44 33 -43 33 -47 -11 -1 -7 5 -12 12 -10 8 1 12 -4 10 -15
-2 -10 -8 -17 -14 -16 -5 1 -16 3 -24 5 -9 2 -16 -6 -18 -19 -3 -17 2 -23 16
-23 12 0 29 -14 42 -35 12 -19 26 -35 32 -35 5 0 8 -6 5 -12 -2 -7 3 -18 10
-23 15 -11 66 -146 58 -154 -3 -2 -5 1 -5 7 0 7 -5 12 -10 12 -6 0 -52 41
-103 91 -149 148 -190 179 -232 179 -19 0 -20 -24 0 -40 8 -7 15 -19 15 -26 0
-8 5 -14 10 -14 6 0 10 -7 10 -15 0 -8 7 -15 15 -15 9 0 19 -8 22 -18 9 -22
55 -72 68 -72 14 0 40 -42 36 -58 -1 -8 7 -21 18 -31 15 -14 17 -21 9 -29 -9
-9 -9 -12 0 -12 9 0 9 -5 0 -21 -10 -17 -10 -23 0 -26 6 -3 12 -17 12 -31 0
-15 4 -41 9 -59 6 -21 5 -35 -2 -42 -17 -17 -16 -73 1 -66 9 3 13 -2 11 -18
-4 -28 20 -72 65 -120 20 -21 36 -42 36 -48 0 -12 683 -12 696 0 17 17 168 91
185 91 24 0 79 48 90 78 5 13 18 26 29 29 11 3 20 11 20 18 0 15 41 28 53 16
13 -13 116 12 175 43 48 24 65 47 43 60 -4 3 -11 31 -15 63 -12 101 -29 183
-39 183 -5 0 -7 -9 -4 -20 3 -10 0 -21 -7 -24 -7 -3 -6 -8 4 -15 12 -9 11 -11
-7 -11 -16 0 -21 4 -17 15 4 9 0 15 -7 15 -19 1 -54 82 -69 159 -15 84 -41
161 -53 161 -12 0 -2 -103 24 -246 27 -147 39 -236 32 -247 -3 -5 -16 -6 -29
-3 -16 4 -24 2 -25 -6 0 -7 -2 -22 -4 -33 -2 -10 1 -25 7 -32 8 -10 5 -13 -11
-13 -12 0 -20 -4 -17 -9 3 -5 -8 -14 -25 -22 -28 -11 -33 -10 -46 7 -8 10 -19
18 -24 16 -6 -1 -8 2 -4 8 4 6 -3 40 -15 76 -11 36 -18 68 -16 73 3 4 0 18 -7
32 -7 13 -18 42 -26 64 -18 53 -40 85 -57 85 -8 0 -14 7 -14 15 0 8 5 15 10
15 13 0 13 37 0 45 -6 4 -10 21 -9 38 2 34 -15 87 -28 87 -5 0 -14 14 -22 30
-17 40 -9 60 110 271 50 90 116 210 145 266 29 55 80 145 112 200 32 54 78
136 102 183 24 47 66 123 93 170 28 47 80 141 117 210 37 69 122 221 189 338
66 116 121 214 121 217 0 5 110 203 220 395 43 74 128 227 190 340 208 377
196 343 152 425 -19 36 -39 56 -67 70 -22 11 -43 23 -46 27 -3 5 -533 9 -1179
10 l-1173 3 26 25 c15 14 27 31 27 38 0 8 18 35 41 60 23 26 48 60 56 76 9 17
46 77 84 134 38 58 69 109 69 115 0 5 14 25 30 44 21 23 29 41 25 54 -8 24 13
85 42 125 30 40 29 50 -5 66 -45 23 -85 3 -127 -61 -20 -29 -34 -56 -31 -58 2
-2 -9 -31 -25 -64 -16 -32 -29 -66 -29 -74 0 -8 -4 -15 -9 -15 -5 0 -19 -31
-31 -70 -12 -38 -26 -70 -29 -70 -9 0 -30 -50 -66 -150 -14 -41 -33 -82 -41
-91 -12 -14 -13 -18 -2 -22 9 -4 8 -6 -3 -6 -15 -1 -33 -33 -30 -53 1 -5 -190
-8 -423 -8 -368 0 -425 2 -430 15 -3 8 -2 15 2 15 4 0 7 11 7 24 0 13 -3 22
-7 19 -5 -2 -8 3 -8 12 0 20 31 62 97 134 29 31 53 59 53 63 0 4 18 28 40 53
22 25 40 53 40 61 0 8 4 13 9 9 5 -3 12 -1 16 5 3 5 -1 10 -9 10 -24 0 -19 11
24 55 29 29 40 35 40 22 0 -9 -4 -17 -10 -17 -5 0 -14 -9 -20 -20 -13 -24 -3
-73 14 -63 6 4 2 -6 -8 -22 -11 -17 -35 -56 -54 -87 -19 -32 -38 -58 -43 -58
-5 0 -9 -11 -9 -25 0 -14 4 -25 9 -25 12 0 61 63 61 78 0 18 37 34 44 19 3 -6
3 -2 1 9 -4 15 3 31 22 50 16 16 41 54 57 84 16 30 39 69 52 85 12 17 33 53
47 81 24 47 59 93 117 155 14 14 34 45 44 67 10 23 27 49 37 58 10 9 21 32 25
51 6 29 44 73 64 73 4 0 10 -9 13 -20 3 -11 1 -20 -4 -20 -5 0 -9 -7 -9 -15 0
-9 -6 -18 -14 -21 -8 -3 -14 -13 -14 -22 0 -9 -9 -46 -20 -82 -12 -35 -20 -66
-18 -67 3 -3 31 38 61 88 6 9 31 47 56 85 25 38 48 79 52 92 l5 23 -281 -2
c-203 -1 -293 -5 -319 -15 -33 -11 -38 -11 -38 1 0 24 -17 17 -58 -22 -21 -21
-58 -49 -82 -63 -24 -14 -78 -60 -121 -104 -61 -62 -81 -77 -97 -72 -11 4 -23
2 -27 -4 -3 -5 -15 -10 -26 -10 -11 0 -22 -7 -25 -15 -4 -8 -14 -15 -24 -15
-10 0 -21 -7 -24 -16 -4 -12 -15 -15 -36 -12 -17 3 -30 2 -30 -1 0 -4 -10 -12
-21 -19 -29 -19 -53 3 -26 23 10 7 16 19 15 26 -2 9 7 14 27 15 52 1 77 13 70
34 -4 12 2 27 15 40 12 12 19 24 16 28 -4 3 -12 0 -18 -6 -7 -7 -25 -12 -40
-12 -15 0 -28 -4 -28 -10 0 -5 -11 -10 -25 -10 -16 0 -25 -6 -25 -16 0 -8 -4
-12 -10 -9 -5 3 -10 17 -10 31 0 14 -4 23 -9 20 -5 -3 -12 5 -15 19 -7 27 -42
35 -62 15 -8 -8 -15 -6 -24 5 -7 8 -21 15 -31 15 -11 0 -19 7 -20 18 -1 11 -4
8 -8 -8 -8 -30 -51 -39 -74 -15 -9 9 -20 15 -24 14 -17 -5 -13 31 4 37 10 3
32 12 50 20 40 18 43 18 43 -3 0 -14 3 -13 20 5 25 27 29 27 24 5 -2 -10 3
-26 11 -37 13 -17 15 -17 30 -2 9 9 24 16 32 16 9 0 25 8 36 18 15 12 21 14
24 5 5 -15 33 -17 33 -3 0 11 -20 14 -58 11 -16 -1 -25 4 -29 18 -3 12 -13 21
-23 21 -10 0 -20 7 -24 15 -5 13 -10 13 -41 -2 -19 -9 -35 -20 -35 -24 0 -4
-17 -13 -37 -20 -21 -6 -44 -16 -51 -22 -9 -7 -16 -7 -24 1 -8 8 -9 12 -1 12
13 0 25 28 17 41 -4 6 -11 6 -19 -1 -9 -8 -17 -4 -29 15 l-16 25 -299 0 -299
0 -6 -26 c-4 -15 -3 -31 2 -36 5 -5 7 -18 5 -29 -4 -15 -8 -17 -19 -8 -11 9
-14 4 -15 -27 -1 -22 -1 -44 0 -50 1 -7 -16 -10 -44 -9 -39 1 -45 -1 -45 -18
0 -27 -13 -13 -17 18 -2 14 1 25 7 25 5 0 10 7 10 15 0 8 -4 15 -9 15 -5 0
-11 9 -14 20 -5 18 -36 27 -71 21 -5 -1 -4 5 3 13 7 8 10 20 6 25 -3 6 4 20
15 31 l20 20 -505 0 c-488 -1 -505 -1 -518 -20z m2356 -608 c-3 -13 -16 -28
-29 -33 -17 -6 -24 -16 -24 -36 0 -14 -4 -40 -9 -57 -9 -30 -26 -96 -38 -146
-3 -14 -17 -42 -30 -62 -12 -21 -23 -44 -23 -53 0 -8 -4 -15 -10 -15 -5 0 -10
-6 -10 -14 0 -7 -7 -19 -15 -26 -8 -7 -15 -25 -15 -40 0 -29 -34 -68 -44 -51
-4 5 -2 12 3 15 8 6 8 39 -1 111 -2 11 -7 23 -12 26 -4 4 -3 16 3 28 7 11 8
21 4 21 -4 0 -3 4 2 8 32 23 65 77 65 106 0 19 9 45 20 59 11 14 20 28 20 30
0 3 15 30 32 59 40 64 69 93 78 77 4 -6 10 -1 13 12 4 16 10 20 16 14 6 -6 8
-21 4 -33z m1742 -536 c83 -28 207 -99 240 -137 20 -22 20 -22 0 -15 -122 46
-294 64 -412 43 -205 -37 -357 -158 -454 -362 -57 -119 -79 -217 -86 -380 -8
-208 16 -336 118 -628 197 -561 214 -622 213 -787 -1 -114 -19 -255 -33 -265
-5 -2 -37 48 -73 113 -148 268 -385 695 -448 807 -133 237 -137 251 -134 546
7 606 254 991 694 1085 105 22 277 13 375 -20z m-2469 -89 c-3 -13 -8 -49 -12
-80 l-7 -57 74 -1 c41 -1 137 -5 214 -8 l140 -8 -200 -3 c-143 -3 -169 -5 -90
-7 90 -3 113 -7 124 -21 13 -16 13 -16 8 1 -5 12 -1 17 13 17 17 0 18 -4 10
-26 -6 -14 -8 -29 -5 -34 3 -5 1 -11 -5 -15 -5 -3 -10 -11 -10 -16 0 -6 13 -1
29 10 16 12 35 21 43 21 7 0 3 -6 -9 -13 -12 -6 -42 -24 -68 -39 -25 -15 -51
-26 -58 -24 -7 1 -9 1 -4 -1 15 -9 6 -25 -10 -19 -10 4 -14 4 -10 0 9 -9 -53
-75 -64 -68 -4 2 -11 -1 -15 -7 -4 -8 -3 -9 4 -5 22 13 12 -9 -19 -47 l-31
-38 -242 6 c-132 3 -256 5 -274 5 -19 0 -31 3 -28 8 3 5 -1 9 -8 9 -8 0 -12
-7 -9 -16 2 -9 -5 0 -16 19 -25 43 -26 52 -5 48 10 -2 19 3 21 10 4 9 -1 10
-21 2 -25 -9 -28 -6 -88 102 -35 62 -66 120 -70 130 -7 17 4 18 180 19 359 3
475 8 484 21 13 22 9 78 -6 78 -7 0 -20 7 -27 16 -12 15 -11 16 9 10 18 -6 24
-2 32 18 12 33 34 35 26 3z m3615 -101 c77 -17 178 -61 246 -107 64 -44 133
-108 133 -124 0 -10 -672 -1227 -687 -1244 -7 -9 -119 31 -184 66 -77 40 -202
139 -194 153 4 6 17 10 30 10 38 0 73 20 85 50 16 38 15 171 0 268 l-13 78 27
27 c14 14 26 33 26 41 0 8 -19 36 -41 63 -55 63 -61 79 -104 283 -20 96 -39
178 -41 182 -6 9 91 103 143 139 65 45 141 81 223 105 90 27 248 31 351 10z
m-930 -123 c31 -11 77 -32 103 -47 64 -37 81 -78 124 -296 37 -191 57 -245
102 -279 38 -28 38 -46 -1 -66 -18 -10 -29 -22 -25 -30 14 -37 28 -150 29
-234 0 -81 -2 -96 -18 -108 -77 -56 -348 -35 -536 42 -41 16 -66 22 -72 16
-25 -25 49 -61 189 -95 l71 -18 7 -76 c15 -167 71 -332 142 -419 60 -73 77
-51 18 25 l-36 47 30 3 c46 5 156 -25 230 -62 103 -52 102 -49 39 -163 -441
-794 -552 -991 -569 -1010 -11 -11 -29 -23 -40 -26 -23 -7 -24 -11 27 122 91
234 117 545 69 821 -19 106 -55 196 -209 525 -203 430 -273 628 -295 829 -28
259 58 425 255 494 83 29 96 31 210 27 63 -2 121 -10 156 -22z m-1553 -684
c78 -141 142 -261 142 -266 0 -6 -13 -16 -29 -23 -45 -18 -98 -77 -117 -129
-10 -25 -21 -50 -25 -55 -8 -9 -90 69 -127 121 l-22 32 27 13 c38 18 49 69 35
167 -9 63 -8 79 4 92 21 24 17 48 -15 85 -40 45 -69 170 -51 215 11 24 15 28
25 17 6 -7 75 -128 153 -269z m225 -411 c4 -13 6 -183 7 -379 0 -310 -2 -359
-16 -388 -9 -18 -19 -29 -23 -24 -3 4 -5 189 -3 411 2 332 5 402 16 402 8 0
16 -10 19 -22z m62 -353 c6 -232 4 -263 -11 -297 -21 -47 -35 -49 -30 -5 3 17
5 163 6 322 1 254 3 287 15 264 10 -19 15 -92 20 -284z m1215 -1304 c0 -15 3
-31 7 -35 21 -21 43 -108 44 -171 0 -38 3 -100 8 -138 7 -64 6 -67 -13 -62
-20 6 -20 5 -3 -8 21 -17 22 -37 3 -37 -24 0 -72 22 -58 27 15 6 15 42 0 93
-17 55 -37 52 -35 -4 1 -24 0 -47 -3 -50 -10 -9 -50 6 -50 19 0 7 -4 15 -10
17 -5 2 -11 23 -13 48 -3 25 -8 53 -12 63 -4 10 -5 20 -2 23 3 3 1 19 -3 36
-8 24 -6 29 5 24 17 -6 19 -1 6 23 -11 19 0 44 21 47 8 1 15 -8 15 -19 1 -11
6 -32 12 -46 5 -14 12 -38 15 -53 9 -40 26 -35 26 7 0 23 -6 38 -15 41 -9 4
-13 13 -10 24 3 9 1 28 -3 41 -8 19 -3 35 20 76 31 56 48 60 48 14z m-370
-331 c6 -11 17 -20 25 -20 9 0 15 -9 15 -21 0 -15 5 -19 16 -15 8 3 13 2 9 -3
-3 -5 5 -20 16 -33 18 -20 22 -38 23 -109 2 -60 8 -99 24 -136 16 -40 18 -51
7 -47 -8 3 -22 -1 -30 -10 -9 -9 -22 -16 -28 -16 -8 0 -7 4 1 12 16 16 15 28
-3 28 -8 0 -15 7 -15 15 0 8 -9 15 -20 15 -11 0 -20 5 -20 11 0 6 -7 17 -15
25 -8 9 -15 25 -15 38 0 12 -9 39 -20 61 -11 21 -18 40 -16 43 3 2 -2 25 -9
50 -7 26 -16 65 -19 87 -5 40 -5 40 29 42 26 2 37 -2 45 -17z"/>
<path d="M4027 4982 c2 -10 -3 -24 -11 -31 -9 -8 -16 -22 -16 -32 0 -10 -4
-21 -10 -24 -5 -3 -10 -16 -10 -28 0 -12 -7 -35 -15 -51 -32 -61 12 -38 69 37
20 26 36 50 36 54 0 8 73 73 83 73 4 0 7 5 7 10 0 6 -30 10 -69 10 -62 0 -69
-2 -64 -18z"/>
<path d="M6166 4974 c-14 -20 -16 -28 -6 -34 9 -5 9 -9 1 -14 -6 -4 -11 -4
-11 0 0 4 -9 -1 -20 -11 -21 -19 -28 -65 -10 -65 7 0 7 -7 0 -21 -12 -21 -6
-69 8 -69 4 0 12 4 17 8 11 8 105 192 105 205 0 4 -13 1 -30 -8 -18 -9 -30
-11 -30 -5 0 6 7 13 15 16 21 8 19 24 -2 24 -10 0 -26 -12 -37 -26z"/>
<path d="M1873 2569 c-45 -13 -51 -30 -6 -17 90 25 168 -15 215 -109 27 -56
30 -69 24 -115 -5 -32 -17 -66 -32 -85 -13 -17 -24 -40 -24 -50 1 -17 1 -17
11 0 5 9 15 17 22 17 7 0 6 -4 -3 -10 -12 -8 -13 -13 -3 -27 7 -10 26 -46 43
-81 18 -34 35 -60 40 -57 4 3 8 -1 7 -8 -1 -32 5 -43 23 -44 23 -2 25 7 8 26
-11 11 -10 13 3 8 11 -3 24 8 42 36 15 23 27 47 27 55 0 7 4 10 10 7 17 -11
-7 41 -73 157 -120 212 -146 263 -147 283 -1 19 -1 19 -14 3 -12 -17 -16 -17
-44 -2 -41 20 -90 25 -129 13z"/>
<path d="M2353 1891 c-10 -10 -28 -22 -41 -25 -17 -6 -21 -12 -16 -31 3 -13 1
-32 -4 -42 -15 -27 1 -51 22 -34 9 8 16 20 16 27 0 8 7 14 16 14 8 0 12 -5 9
-10 -4 -6 5 -23 20 -37 20 -21 24 -33 20 -54 -5 -22 -2 -29 17 -34 13 -4 37
-18 54 -31 17 -12 43 -26 58 -30 26 -6 32 -15 19 -28 -17 -17 -10 -36 13 -36
21 0 22 3 14 25 -19 50 -41 86 -49 80 -5 -3 -7 4 -4 15 3 12 0 20 -6 20 -7 0
-9 5 -6 10 3 6 1 10 -4 10 -6 0 -11 6 -11 13 0 15 -76 88 -84 80 -9 -10 -17
37 -8 54 11 20 -1 63 -17 63 -6 0 -18 -8 -28 -19z"/>
<path d="M2401 1458 c0 -7 9 -26 19 -43 26 -40 60 -103 60 -110 0 -3 -3 -4 -7
-4 -5 1 -23 -4 -40 -11 l-33 -12 18 -31 c15 -28 43 -68 72 -104 6 -7 10 -16
10 -21 0 -4 8 -17 18 -28 28 -32 58 -77 81 -122 12 -23 26 -42 32 -42 6 0 7
-5 4 -10 -3 -6 1 -13 9 -16 9 -3 16 -11 16 -17 0 -6 7 -17 15 -26 8 -9 40 -47
71 -86 70 -88 100 -107 237 -152 23 -7 22 13 -4 62 -11 22 -21 62 -22 90 -2
43 1 50 16 49 10 -1 16 3 14 10 -3 6 -9 10 -14 9 -5 -1 -9 13 -8 32 0 19 -1
32 -4 30 -8 -9 -32 35 -25 47 4 7 3 8 -4 4 -14 -8 -56 70 -46 86 4 7 3 8 -4 4
-12 -7 -13 -6 -17 32 -1 13 -8 29 -15 35 -10 10 -10 7 -1 -10 6 -13 9 -23 7
-23 -11 0 -37 61 -31 71 4 5 3 8 -2 7 -5 -2 -26 16 -46 39 -34 37 -37 45 -27
65 l11 23 -18 -23 -18 -22 -45 38 c-25 20 -72 63 -105 95 -33 31 -64 57 -70
57 -5 0 -21 9 -35 20 -28 22 -70 27 -69 8z"/>
<path d="M5730 1096 c-8 -7 14 -259 24 -274 4 -7 10 -63 13 -125 3 -61 7 -114
9 -116 2 -2 17 2 35 9 29 12 30 16 25 54 -11 86 -18 122 -25 141 -25 63 -63
215 -73 293 -2 13 -5 21 -8 18z"/>
<path d="M5513 893 c5 -62 16 -158 36 -330 8 -67 2 -90 -20 -78 -10 6 -11 5
-4 -3 6 -7 25 -15 43 -18 30 -6 32 -5 32 23 0 38 -21 145 -30 158 -4 6 -11 57
-15 115 -4 57 -13 120 -20 140 -6 19 -10 41 -8 48 3 6 -1 12 -7 12 -9 0 -11
-19 -7 -67z"/>
<path d="M2820 455 c0 -17 20 -56 35 -68 6 -6 5 -10 -3 -14 -10 -4 -8 -9 7
-20 12 -8 21 -23 21 -34 0 -10 4 -19 10 -19 12 0 60 -97 60 -122 0 -10 5 -18
11 -18 6 0 9 -10 7 -23 -1 -12 5 -33 15 -47 15 -22 16 -25 2 -28 -8 -2 -15 -8
-15 -13 0 -5 -13 -3 -30 6 -16 8 -36 15 -45 15 -8 0 -15 5 -15 10 0 6 7 10 16
10 8 0 12 5 9 10 -4 6 -12 10 -18 9 -33 -4 -47 2 -47 21 0 11 -7 20 -16 20 -8
0 -13 4 -10 9 3 5 0 14 -8 20 -20 17 -29 -14 -10 -34 8 -8 13 -19 10 -24 -3
-5 5 -16 19 -25 14 -9 24 -20 24 -24 -4 -21 3 -34 14 -29 10 4 13 -2 9 -19
l-4 -24 233 0 232 0 -23 25 c-13 14 -31 25 -40 25 -8 0 -21 14 -27 30 -8 21
-16 28 -27 24 -22 -9 -42 11 -50 46 -7 40 -33 40 -32 0 1 -16 6 -30 12 -30 7
0 15 -7 18 -16 11 -30 -1 -26 -30 9 -16 19 -39 39 -50 45 -12 6 -29 26 -37 45
-19 38 -133 157 -152 157 -7 0 -15 13 -18 28 -7 32 -57 92 -57 67z"/>
<path d="M3156 373 c-3 -3 6 -20 19 -38 14 -17 25 -37 25 -43 0 -7 5 -12 10
-12 6 0 15 -11 20 -25 20 -53 64 -140 73 -146 5 -4 6 -12 2 -19 -4 -7 1 -13
14 -17 16 -4 21 -13 21 -39 l0 -34 255 0 c140 0 255 3 255 7 0 4 -9 16 -20 28
-11 11 -32 35 -46 53 -29 37 -50 41 -59 12 -6 -20 -45 -48 -45 -33 0 4 -42 51
-93 103 -50 52 -107 113 -124 135 -43 52 -61 38 -36 -28 10 -26 21 -47 25 -47
7 0 25 -37 56 -112 8 -19 8 -36 2 -53 -8 -22 -13 -24 -30 -15 -11 6 -20 16
-20 23 0 7 -40 54 -89 105 -49 51 -99 108 -111 126 -22 31 -94 79 -104 69z"/>
</g>
</svg>
