<?xml version="1.0" standalone="no"?>
<!DOCTYPE svg PUBLIC "-//W3C//DTD SVG 20010904//EN"
 "http://www.w3.org/TR/2001/REC-SVG-20010904/DTD/svg10.dtd">
<svg version="1.0" xmlns="http://www.w3.org/2000/svg"
 width="500.000000pt" height="500.000000pt" viewBox="0 0 500.000000 500.000000"
 preserveAspectRatio="xMidYMid meet">
<metadata>
Created by potrace 1.13, written by Peter Selinger 2001-2015
</metadata>
<g transform="translate(0.000000,500.000000) scale(0.100000,-0.100000)"
fill="#000000" stroke="none">
<path d="M974 3436 c-138 -51 -240 -137 -291 -246 -88 -185 -64 -378 64 -520
40 -44 115 -90 188 -115 17 -5 11 -11 -34 -33 -117 -58 -181 -142 -236 -312
-37 -115 -99 -255 -130 -296 -40 -53 -95 -42 -95 18 0 15 23 67 51 115 27 49
68 124 89 168 35 71 38 85 30 115 -16 58 -47 100 -73 100 -31 0 -125 -58 -151
-93 -18 -25 -21 -42 -20 -127 l1 -99 -31 -3 c-23 -2 -34 -11 -45 -33 -21 -46
-41 -65 -70 -66 l-26 -1 25 -8 c46 -15 69 -10 100 20 17 16 37 30 45 30 16 0
22 29 29 151 6 100 15 125 63 162 47 35 86 36 101 2 28 -61 -1 -139 -104 -286
-29 -42 -59 -97 -66 -123 -11 -42 -10 -51 7 -84 30 -55 78 -68 157 -42 34 11
63 19 64 17 2 -1 -11 -24 -27 -51 -25 -39 -27 -47 -12 -41 45 18 264 46 335
43 61 -2 83 -8 108 -26 39 -29 71 -25 88 10 11 24 10 31 -12 67 -14 22 -29 42
-33 44 -5 3 -74 -1 -153 -9 -80 -7 -151 -14 -159 -14 -28 0 175 222 218 239
44 16 123 30 222 37 101 7 144 22 154 54 3 11 10 20 14 20 22 0 115 -202 162
-352 l34 -108 118 0 c115 0 117 1 107 20 -14 27 -50 49 -102 65 l-43 12 -13
69 c-8 38 -24 128 -37 199 l-22 130 33 24 c70 50 113 139 114 237 0 107 -44
218 -139 344 -27 36 -47 67 -45 69 2 2 29 -13 60 -33 62 -42 77 -39 72 15 -3
30 -6 34 -28 31 -17 -2 -34 6 -50 23 -24 25 -24 26 -4 45 16 16 26 17 64 10
29 -5 46 -5 49 2 2 6 12 18 22 26 41 35 13 70 -71 87 -45 9 -68 10 -80 3 -23
-15 -52 -2 -48 19 2 12 12 18 28 18 24 0 30 5 30 24 0 4 -33 11 -72 14 -92 8
-136 21 -182 52 l-36 24 0 -45 c0 -24 7 -61 15 -81 8 -20 14 -38 11 -40 -2 -2
-31 -9 -66 -16 l-62 -13 76 -58 c41 -32 74 -62 71 -66 -3 -4 -21 -11 -41 -15
l-37 -6 41 -42 c60 -63 76 -101 75 -182 0 -71 -26 -153 -54 -171 -9 -5 -10 -2
-4 12 4 10 15 44 23 74 14 50 14 60 -2 112 -22 77 -66 131 -156 193 -51 35
-85 67 -105 100 -28 45 -30 55 -30 144 0 86 3 101 27 144 15 26 25 47 24 47
-2 0 -20 -7 -40 -15 -44 -19 -46 -9 -11 53 28 49 24 50 -61 18z"/>
<path d="M1785 2946 c17 -8 33 -12 38 -9 4 2 7 0 7 -6 0 -5 10 -13 23 -17 12
-4 41 -20 65 -36 23 -16 42 -26 42 -22 0 4 10 -5 21 -20 12 -16 27 -25 36 -22
8 3 12 2 9 -2 -3 -5 15 -28 40 -53 24 -24 57 -62 72 -84 15 -22 30 -42 33 -45
9 -7 69 -137 69 -150 0 -5 4 -10 9 -10 5 0 12 -7 15 -16 4 -9 2 -13 -5 -8 -7
4 -9 0 -6 -12 22 -74 30 -113 28 -138 -1 -15 4 -35 10 -42 6 -8 8 -14 3 -14
-5 0 -2 -5 6 -10 11 -7 12 -10 2 -10 -9 0 -11 -7 -7 -19 3 -11 2 -22 -3 -25
-5 -3 -9 -19 -10 -36 l-1 -30 66 0 65 0 -6 116 c-3 63 -9 121 -13 127 -4 7 -8
17 -8 22 -2 31 -18 95 -24 95 -4 0 -7 10 -8 21 -3 30 -13 37 -25 15 -8 -15
-12 -16 -19 -5 -5 8 -9 19 -9 24 0 6 4 4 9 -4 7 -11 10 -9 16 8 4 14 -1 31
-17 54 -13 17 -22 33 -20 35 6 7 1 22 -9 22 -7 0 -9 -10 -4 -27 4 -16 3 -25
-1 -21 -4 5 -13 -1 -21 -12 -15 -22 -33 -27 -33 -9 0 5 4 8 9 5 11 -7 35 49
27 63 -3 5 -1 11 6 13 18 6 -21 56 -97 126 -69 63 -198 137 -222 128 -8 -3
-11 -2 -8 4 6 10 -79 38 -140 45 l-40 5 30 -14z"/>
<path d="M2928 2854 c41 -30 42 -479 1 -505 -9 -5 21 -9 83 -9 l97 0 -15 28
c-9 17 -14 58 -14 115 0 79 2 87 19 87 24 0 54 -36 123 -144 l53 -86 84 0 84
0 -25 20 c-25 19 -188 231 -188 244 0 3 7 6 17 6 9 0 35 11 58 25 101 59 95
190 -11 225 -46 15 -387 9 -366 -6z m255 -25 c41 -21 57 -51 57 -107 0 -29 -5
-62 -10 -73 -15 -27 -63 -49 -110 -49 l-40 0 0 113 c0 63 3 117 7 120 10 11
72 8 96 -4z"/>
<path d="M3539 2688 c-27 -29 -49 -56 -49 -60 0 -4 19 2 43 12 55 25 98 25
131 -1 30 -24 35 -65 9 -73 -10 -3 -50 -12 -88 -20 -129 -27 -155 -45 -155
-107 0 -49 30 -82 86 -98 59 -17 73 -14 117 24 22 19 44 35 49 35 4 0 8 -16 8
-36 0 -36 1 -36 31 -30 17 3 52 6 76 6 41 0 43 1 28 16 -14 14 -16 38 -14 158
3 115 0 147 -13 172 -20 37 -69 54 -153 54 -56 0 -58 -1 -106 -52z"/>
<path d="M3999 2698 c-96 -49 -117 -76 -126 -160 -11 -111 56 -197 160 -205
47 -4 59 0 122 38 104 62 112 71 125 149 18 108 -9 174 -86 206 -58 24 -105
17 -195 -28z m114 -28 c34 -27 47 -76 47 -172 0 -101 -3 -108 -51 -108 -29 0
-47 8 -71 29 -33 29 -33 30 -36 134 -3 86 -1 107 13 120 22 23 67 21 98 -3z"/>
<path d="M4390 2733 c-44 -3 -60 -7 -50 -13 12 -7 16 -41 18 -165 2 -90 -1
-169 -7 -186 l-10 -29 82 0 c63 0 78 3 69 12 -8 8 -12 55 -12 145 0 121 2 133
19 143 24 12 61 13 81 0 19 -12 28 -246 10 -279 -10 -20 -9 -21 70 -21 77 0
80 1 70 19 -5 11 -10 83 -10 161 0 155 -9 187 -55 208 -52 24 -92 15 -131 -28
-20 -22 -40 -40 -45 -40 -5 0 -9 18 -9 40 0 26 -4 39 -12 38 -7 -1 -42 -3 -78
-5z"/>
<path d="M2500 2270 c19 -19 20 -33 20 -243 0 -177 -3 -227 -14 -243 -15 -21
-14 -21 180 -22 193 -1 194 0 194 21 0 12 9 41 20 65 10 23 17 42 14 42 -2 0
-18 -15 -34 -33 -35 -40 -85 -57 -169 -57 l-61 0 0 115 0 115 48 0 c58 0 96
-18 100 -48 2 -12 8 -22 13 -22 5 0 9 37 8 83 0 45 -3 75 -6 67 -15 -40 -35
-50 -100 -50 l-64 0 3 98 3 97 72 0 c79 0 125 -22 131 -64 7 -42 20 -20 24 39
l3 60 -202 0 -203 0 20 -20z"/>
<path d="M3120 2245 c-19 -7 -47 -14 -62 -14 -26 -1 -28 -4 -28 -39 0 -35 -2
-38 -27 -37 -22 0 -29 -5 -31 -24 -3 -21 -1 -23 27 -19 l31 5 0 -155 0 -154
30 -30 c38 -37 73 -34 128 12 20 16 43 30 50 30 7 0 11 4 7 9 -3 5 -21 7 -39
4 -50 -8 -57 13 -54 159 l3 123 108 0 c107 0 126 6 127 39 0 5 -54 6 -121 4
l-121 -5 6 53 c3 30 5 54 4 53 -2 0 -19 -7 -38 -14z"/>
<path d="M1991 2163 c20 -23 20 -363 1 -386 -12 -14 -1 -16 126 -19 l139 -3
12 64 c13 71 10 87 -9 41 -17 -41 -70 -72 -117 -68 l-38 3 0 176 c0 133 4 181
14 193 12 14 6 16 -64 16 -71 0 -76 -1 -64 -17z"/>
<path d="M3524 2161 c-21 -4 -48 -24 -78 -57 -50 -56 -51 -73 -3 -43 20 11 50
19 79 19 38 0 50 -5 67 -26 31 -39 27 -61 -11 -69 -140 -26 -184 -40 -212 -67
-24 -25 -28 -34 -23 -66 8 -47 41 -76 106 -92 l51 -12 46 41 c26 23 51 41 55
41 5 0 9 -17 9 -37 l0 -38 77 3 c56 3 73 6 60 13 -15 9 -17 28 -17 153 0 159
-8 195 -48 218 -32 19 -114 29 -158 19z"/>
<path d="M4091 2163 c-7 -3 -31 -23 -53 -45 -44 -44 -59 -43 -51 7 l6 35 -84
0 c-74 0 -81 -2 -63 -14 18 -14 19 -28 19 -263 0 -249 -4 -290 -28 -315 -11
-11 3 -13 83 -13 73 0 93 3 82 11 -11 8 -15 33 -16 99 l-1 87 65 17 c96 24
149 58 185 115 55 90 36 214 -40 257 -34 19 -83 29 -104 22z m-15 -93 c8 0 26
-11 39 -25 23 -22 25 -32 25 -110 0 -78 -2 -88 -25 -110 -18 -19 -35 -25 -67
-25 -71 0 -72 2 -63 134 6 103 9 118 28 131 12 9 28 13 35 10 8 -3 20 -5 28
-5z"/>
<path d="M4530 2160 c-150 -28 -217 -165 -149 -302 24 -47 60 -74 122 -93 67
-20 104 -19 116 3 5 9 30 32 55 51 25 19 46 38 46 42 0 4 -18 0 -41 -7 -94
-33 -199 28 -199 115 0 20 5 21 123 21 l124 0 -7 44 c-4 24 -14 56 -23 70 -30
45 -100 69 -167 56z"/>
</g>
</svg>
